<?xml version="1.0" encoding="utf-8"?>
<!-- Generator: Adobe Illustrator 24.3.0, SVG Export Plug-In . SVG Version: 6.00 Build 0)  -->
<svg version="1.1" id="Layer_1" xmlns="http://www.w3.org/2000/svg" xmlns:xlink="http://www.w3.org/1999/xlink" x="0px" y="0px"
	 viewBox="0 0 20 20" style="enable-background:new 0 0 20 20;" xml:space="preserve">
<style type="text/css">
	.st0{display:none;fill:#FFFFFF;}
	.st1{fill:#F2A20C;}
	.st2{fill:#F77B00;}
	.st3{fill:#BE1622;}
	.st4{fill:url(#SVGID_1_);}
	.st5{fill:#C95217;}
</style>
<rect x="-15" y="-15" class="st0" width="50" height="50"/>
<path class="st1" d="M5.17,18.62c-2.16-1.2-3.29-3.78-3.44-6.29C1.49,8.34,4.7,6.07,5.34,5.31C6.95,3.4,7.51,3.47,9.49,1.97
	c-0.25,0.84-0.34-0.02-0.5,1.12c1.55-1.31,3.97-1.36,5.86-2.09c-0.32,1.03-1.39,1.02-1.51,2.07c1.2-1.16,3.41-1.47,5.01-1.89
	c-0.16,1.18-1.24,1.81-1.25,2.99c0.42-0.29,1.04-0.01,1.46-0.3c-0.22,1.88-0.93,3.14-1.38,4.82c0.5-0.41,1.38-1.61,1.87-2.03
	c0.41,2.38-1.23,5.3-2.42,6.68c-1.28,1.48-1.7,3.02-3.03,4.03c-1.13,0.85-2.57,1.58-3.95,1.84C8.27,19.46,6.7,19.47,5.17,18.62z"/>
<path class="st2" d="M15.88,10.69c0.27-0.68,0.47-4.77,0.44-5.5c0,0-1.49,3.27-1.96,3.36c0-0.56,1.18-4.67,1.18-4.67
	s-2.47,2.9-2.87,3.02c-0.1-0.53,2.39-3.33,2.41-3.86c-0.66,0.07-4.56,3.1-4.64,3.04C10.37,6.03,13,3.6,13,3.34
	c0-0.02-4.84,2.36-5.05,2.46c0,0,2.71-2.21,2.96-3.08C9.58,2.95,5.54,5.47,5.34,5.66C4.8,6.16,4.59,6.82,4.09,7.38
	c-0.89,1-1.06,2.33-1.59,3.57c-0.95,2.24-0.32,4.71,1.48,6.31c3.67,3.25,10.97,2.84,13.1-11.05C16.91,6.26,16.05,10.63,15.88,10.69z
	"/>
<path class="st3" d="M14.05,13.07c0,1.12-0.32,2.16-0.88,3.04c-1.01,1.59-2.79,2.65-4.81,2.65c-3.15,0-5.7-2.55-5.7-5.7
	c0-1.43,0.53-2.75,1.4-3.75c1.05-1.2,2.58-1.95,4.29-1.95C11.5,7.38,14.05,9.93,14.05,13.07z"/>
<radialGradient id="SVGID_1_" cx="8.6144" cy="12.7221" r="5.3908" gradientUnits="userSpaceOnUse">
	<stop  offset="0" style="stop-color:#E94E1B"/>
	<stop  offset="1" style="stop-color:#F39200"/>
</radialGradient>
<path class="st4" d="M14.05,13.07c0,1.12-0.32,2.16-0.88,3.04c-1.05,1.2-2.58,1.95-4.29,1.95c-3.14,0-5.69-2.55-5.69-5.7
	c0-1.12,0.32-2.16,0.88-3.04c1.05-1.2,2.58-1.95,4.29-1.95C11.5,7.38,14.05,9.93,14.05,13.07z"/>
<path class="st5" d="M8.74,10.79c-0.17,0.25-0.17,0.61,0.01,0.85c0.17,0.25,0.51,0.37,0.8,0.28c0.29-0.09,0.5-0.38,0.5-0.68
	C10.03,10.58,9.13,10.19,8.74,10.79z"/>
<path class="st5" d="M6.45,14.11c-0.13-0.27-0.49-0.4-0.76-0.28l-0.1,0.05c-0.25,0.17-0.32,0.54-0.16,0.79
	c0.16,0.25,0.53,0.35,0.79,0.2C6.47,14.74,6.58,14.37,6.45,14.11z"/>
<path class="st5" d="M11.21,13.89c-0.33-0.39-1.1-0.53-1.36-0.04c-0.13,0.24-0.07,0.55,0.12,0.75c0.18,0.2,0.47,0.29,0.74,0.27
	c0.24-0.02,0.5-0.13,0.6-0.36C11.42,14.28,11.36,14.06,11.21,13.89z"/>
</svg>
